<mxfile host="65bd71144e">
    <diagram id="lfrONvJ5XvdHwebsEPDT" name="Page-1">
        <mxGraphModel dx="946" dy="743" grid="0" gridSize="10" guides="1" tooltips="1" connect="1" arrows="1" fold="1" page="1" pageScale="1" pageWidth="827" pageHeight="1169" background="#ffffff" math="0" shadow="0">
            <root>
                <mxCell id="0"/>
                <mxCell id="1" parent="0"/>
                <mxCell id="3" value="" style="shape=umlLifeline;participant=umlActor;perimeter=lifelinePerimeter;whiteSpace=wrap;html=1;container=1;collapsible=0;recursiveResize=0;verticalAlign=top;spacingTop=36;outlineConnect=0;strokeColor=#000000;" parent="1" vertex="1">
                    <mxGeometry x="41" y="79" width="20" height="433" as="geometry"/>
                </mxCell>
                <mxCell id="6" value="" style="rounded=0;whiteSpace=wrap;html=1;fillColor=none;strokeColor=#000000;" parent="1" vertex="1">
                    <mxGeometry x="105" y="77" width="120" height="60" as="geometry"/>
                </mxCell>
                <mxCell id="7" value="" style="endArrow=none;dashed=1;html=1;dashPattern=1 3;strokeWidth=2;entryX=0.5;entryY=1;entryDx=0;entryDy=0;strokeColor=#000000;" parent="1" target="6" edge="1">
                    <mxGeometry width="50" height="50" relative="1" as="geometry">
                        <mxPoint x="163" y="515" as="sourcePoint"/>
                        <mxPoint x="183" y="272" as="targetPoint"/>
                    </mxGeometry>
                </mxCell>
                <mxCell id="9" value="&lt;font color=&quot;#050505&quot;&gt;server.js&lt;/font&gt;" style="rounded=0;whiteSpace=wrap;html=1;fillColor=none;strokeColor=#000000;" parent="1" vertex="1">
                    <mxGeometry x="277" y="77" width="120" height="60" as="geometry"/>
                </mxCell>
                <mxCell id="10" value="" style="endArrow=none;dashed=1;html=1;dashPattern=1 3;strokeWidth=2;entryX=0.5;entryY=1;entryDx=0;entryDy=0;strokeColor=#000000;" parent="1" target="9" edge="1">
                    <mxGeometry width="50" height="50" relative="1" as="geometry">
                        <mxPoint x="335" y="515" as="sourcePoint"/>
                        <mxPoint x="355" y="272" as="targetPoint"/>
                    </mxGeometry>
                </mxCell>
                <mxCell id="11" value="" style="rounded=0;whiteSpace=wrap;html=1;fillColor=none;strokeColor=#000000;" parent="1" vertex="1">
                    <mxGeometry x="449" y="77" width="120" height="60" as="geometry"/>
                </mxCell>
                <mxCell id="12" value="" style="endArrow=none;dashed=1;html=1;dashPattern=1 3;strokeWidth=2;entryX=0.5;entryY=1;entryDx=0;entryDy=0;strokeColor=#000000;" parent="1" target="11" edge="1">
                    <mxGeometry width="50" height="50" relative="1" as="geometry">
                        <mxPoint x="507" y="515" as="sourcePoint"/>
                        <mxPoint x="527" y="272" as="targetPoint"/>
                    </mxGeometry>
                </mxCell>
                <mxCell id="13" value="User" style="text;html=1;strokeColor=none;fillColor=none;align=center;verticalAlign=middle;whiteSpace=wrap;rounded=0;labelBackgroundColor=none;fontColor=none;" parent="1" vertex="1">
                    <mxGeometry x="21" y="42" width="60" height="30" as="geometry"/>
                </mxCell>
                <mxCell id="14" value="PlanetExplorer UI" style="text;html=1;strokeColor=none;fillColor=none;align=center;verticalAlign=middle;whiteSpace=wrap;rounded=0;labelBackgroundColor=none;fontColor=none;" parent="1" vertex="1">
                    <mxGeometry x="135" y="42" width="60" height="30" as="geometry"/>
                </mxCell>
                <mxCell id="15" value="express server" style="text;html=1;strokeColor=none;fillColor=none;align=center;verticalAlign=middle;whiteSpace=wrap;rounded=0;labelBackgroundColor=none;fontColor=none;" parent="1" vertex="1">
                    <mxGeometry x="305" y="42" width="60" height="30" as="geometry"/>
                </mxCell>
                <mxCell id="16" value="database" style="text;html=1;strokeColor=none;fillColor=none;align=center;verticalAlign=middle;whiteSpace=wrap;rounded=0;labelBackgroundColor=none;fontColor=none;" parent="1" vertex="1">
                    <mxGeometry x="476" y="92" width="60" height="30" as="geometry"/>
                </mxCell>
                <mxCell id="17" value="Clicks to view list of planets" style="text;html=1;strokeColor=none;fillColor=none;align=center;verticalAlign=middle;whiteSpace=wrap;rounded=0;labelBackgroundColor=none;fontColor=none;" parent="1" vertex="1">
                    <mxGeometry x="54" y="168" width="104" height="30" as="geometry"/>
                </mxCell>
                <mxCell id="18" value="" style="endArrow=classic;html=1;strokeWidth=2;strokeColor=#000000;fontColor=none;endFill=1;" parent="1" source="3" edge="1">
                    <mxGeometry width="50" height="50" relative="1" as="geometry">
                        <mxPoint x="318" y="331" as="sourcePoint"/>
                        <mxPoint x="163" y="200" as="targetPoint"/>
                    </mxGeometry>
                </mxCell>
                <mxCell id="19" value="PlanetService.js" style="text;html=1;strokeColor=none;fillColor=none;align=center;verticalAlign=middle;whiteSpace=wrap;rounded=0;labelBackgroundColor=none;fontColor=none;" parent="1" vertex="1">
                    <mxGeometry x="135" y="92" width="60" height="30" as="geometry"/>
                </mxCell>
                <mxCell id="20" value="fetch ( )" style="text;html=1;strokeColor=none;fillColor=none;align=center;verticalAlign=middle;whiteSpace=wrap;rounded=0;labelBackgroundColor=none;fontColor=none;" parent="1" vertex="1">
                    <mxGeometry x="203" y="218" width="104" height="30" as="geometry"/>
                </mxCell>
                <mxCell id="21" value="" style="endArrow=classic;html=1;strokeWidth=2;strokeColor=#000000;fontColor=none;endFill=1;" parent="1" edge="1">
                    <mxGeometry width="50" height="50" relative="1" as="geometry">
                        <mxPoint x="164.2499999999999" y="243" as="sourcePoint"/>
                        <mxPoint x="338" y="243" as="targetPoint"/>
                    </mxGeometry>
                </mxCell>
                <mxCell id="22" value="HTTP GET request" style="text;html=1;strokeColor=none;fillColor=none;align=center;verticalAlign=middle;whiteSpace=wrap;rounded=0;labelBackgroundColor=none;fontColor=none;" vertex="1" parent="1">
                    <mxGeometry x="195" y="241" width="124" height="30" as="geometry"/>
                </mxCell>
                <mxCell id="23" value="" style="endArrow=classic;html=1;strokeWidth=2;strokeColor=#000000;fontColor=none;endFill=1;" edge="1" parent="1">
                    <mxGeometry width="50" height="50" relative="1" as="geometry">
                        <mxPoint x="338.9999999999999" y="271" as="sourcePoint"/>
                        <mxPoint x="512.75" y="271" as="targetPoint"/>
                    </mxGeometry>
                </mxCell>
                <mxCell id="24" value="retrieves planet data" style="text;html=1;strokeColor=none;fillColor=none;align=center;verticalAlign=middle;whiteSpace=wrap;rounded=0;labelBackgroundColor=none;fontColor=none;" vertex="1" parent="1">
                    <mxGeometry x="360" y="266" width="124" height="30" as="geometry"/>
                </mxCell>
                <mxCell id="27" value="" style="endArrow=none;html=1;strokeWidth=2;strokeColor=#000000;fontColor=none;endFill=0;startArrow=block;startFill=1;dashed=1;dashPattern=1 1;" edge="1" parent="1">
                    <mxGeometry width="50" height="50" relative="1" as="geometry">
                        <mxPoint x="338.9999999999999" y="301" as="sourcePoint"/>
                        <mxPoint x="507" y="301" as="targetPoint"/>
                    </mxGeometry>
                </mxCell>
                <mxCell id="29" value="HTTP response" style="text;html=1;strokeColor=none;fillColor=none;align=center;verticalAlign=middle;whiteSpace=wrap;rounded=0;labelBackgroundColor=none;fontColor=none;dashed=1;" vertex="1" parent="1">
                    <mxGeometry x="369" y="296" width="124" height="30" as="geometry"/>
                </mxCell>
                <mxCell id="30" value="" style="endArrow=none;html=1;strokeWidth=2;strokeColor=#000000;fontColor=none;endFill=0;startArrow=block;startFill=1;dashed=1;dashPattern=1 1;" edge="1" parent="1">
                    <mxGeometry width="50" height="50" relative="1" as="geometry">
                        <mxPoint x="160.9999999999999" y="331" as="sourcePoint"/>
                        <mxPoint x="334.75" y="331" as="targetPoint"/>
                    </mxGeometry>
                </mxCell>
                <mxCell id="31" value="response data" style="text;html=1;strokeColor=none;fillColor=none;align=center;verticalAlign=middle;whiteSpace=wrap;rounded=0;labelBackgroundColor=none;fontColor=none;" vertex="1" parent="1">
                    <mxGeometry x="191" y="327" width="124" height="29" as="geometry"/>
                </mxCell>
                <mxCell id="32" value="" style="endArrow=none;html=1;strokeWidth=2;strokeColor=#000000;fontColor=none;endFill=0;startArrow=block;startFill=1;dashed=1;dashPattern=1 1;" edge="1" parent="1">
                    <mxGeometry width="50" height="50" relative="1" as="geometry">
                        <mxPoint x="50" y="362" as="sourcePoint"/>
                        <mxPoint x="162" y="360" as="targetPoint"/>
                    </mxGeometry>
                </mxCell>
                <mxCell id="33" value="PlanetList renders" style="text;html=1;strokeColor=none;fillColor=none;align=center;verticalAlign=middle;whiteSpace=wrap;rounded=0;labelBackgroundColor=none;fontColor=none;" vertex="1" parent="1">
                    <mxGeometry x="64" y="364" width="84" height="29" as="geometry"/>
                </mxCell>
            </root>
        </mxGraphModel>
    </diagram>
</mxfile>